<mxfile host="app.diagrams.net" agent="Mozilla/5.0 (Windows NT 10.0; Win64; x64) AppleWebKit/537.36 (KHTML, like Gecko) Chrome/131.0.0.0 Safari/537.36 OPR/116.0.0.0" version="26.0.10">
  <diagram name="Página-1" id="6lH5Bdbk7HveaZ3Ip32s">
    <mxGraphModel dx="1248" dy="537" grid="1" gridSize="10" guides="1" tooltips="1" connect="1" arrows="1" fold="1" page="1" pageScale="1" pageWidth="1169" pageHeight="827" math="0" shadow="0">
      <root>
        <mxCell id="0" />
        <mxCell id="1" parent="0" />
        <mxCell id="ydzcI7kzK4nFqc2at0iC-1" value="Cliente" style="whiteSpace=wrap;html=1;align=center;" vertex="1" parent="1">
          <mxGeometry x="190" y="140" width="100" height="40" as="geometry" />
        </mxCell>
        <mxCell id="ydzcI7kzK4nFqc2at0iC-8" style="edgeStyle=orthogonalEdgeStyle;rounded=0;orthogonalLoop=1;jettySize=auto;html=1;entryX=0.5;entryY=0;entryDx=0;entryDy=0;" edge="1" parent="1" source="ydzcI7kzK4nFqc2at0iC-2" target="ydzcI7kzK4nFqc2at0iC-1">
          <mxGeometry relative="1" as="geometry" />
        </mxCell>
        <mxCell id="ydzcI7kzK4nFqc2at0iC-2" value="CPF" style="ellipse;whiteSpace=wrap;html=1;align=center;" vertex="1" parent="1">
          <mxGeometry x="190" y="40" width="100" height="40" as="geometry" />
        </mxCell>
        <mxCell id="ydzcI7kzK4nFqc2at0iC-3" value="NOME" style="ellipse;whiteSpace=wrap;html=1;align=center;" vertex="1" parent="1">
          <mxGeometry x="40" y="60" width="100" height="40" as="geometry" />
        </mxCell>
        <mxCell id="ydzcI7kzK4nFqc2at0iC-10" style="edgeStyle=orthogonalEdgeStyle;rounded=0;orthogonalLoop=1;jettySize=auto;html=1;" edge="1" parent="1" source="ydzcI7kzK4nFqc2at0iC-4" target="ydzcI7kzK4nFqc2at0iC-1">
          <mxGeometry relative="1" as="geometry" />
        </mxCell>
        <mxCell id="ydzcI7kzK4nFqc2at0iC-4" value="ENDERECO" style="ellipse;whiteSpace=wrap;html=1;align=center;" vertex="1" parent="1">
          <mxGeometry x="30" y="140" width="100" height="40" as="geometry" />
        </mxCell>
        <mxCell id="ydzcI7kzK4nFqc2at0iC-11" style="edgeStyle=orthogonalEdgeStyle;rounded=0;orthogonalLoop=1;jettySize=auto;html=1;entryX=0.5;entryY=1;entryDx=0;entryDy=0;" edge="1" parent="1" source="ydzcI7kzK4nFqc2at0iC-5" target="ydzcI7kzK4nFqc2at0iC-1">
          <mxGeometry relative="1" as="geometry" />
        </mxCell>
        <mxCell id="ydzcI7kzK4nFqc2at0iC-5" value="FONE" style="ellipse;whiteSpace=wrap;html=1;align=center;" vertex="1" parent="1">
          <mxGeometry x="50" y="230" width="100" height="40" as="geometry" />
        </mxCell>
        <mxCell id="ydzcI7kzK4nFqc2at0iC-6" value="CODCLIENTE" style="ellipse;whiteSpace=wrap;html=1;align=center;" vertex="1" parent="1">
          <mxGeometry x="430" y="80" width="100" height="40" as="geometry" />
        </mxCell>
        <mxCell id="ydzcI7kzK4nFqc2at0iC-7" value="PLACA" style="ellipse;whiteSpace=wrap;html=1;align=center;" vertex="1" parent="1">
          <mxGeometry x="830" y="40" width="100" height="40" as="geometry" />
        </mxCell>
        <mxCell id="ydzcI7kzK4nFqc2at0iC-9" style="edgeStyle=orthogonalEdgeStyle;rounded=0;orthogonalLoop=1;jettySize=auto;html=1;exitX=0.5;exitY=1;exitDx=0;exitDy=0;entryX=0.096;entryY=0.09;entryDx=0;entryDy=0;entryPerimeter=0;" edge="1" parent="1" source="ydzcI7kzK4nFqc2at0iC-3" target="ydzcI7kzK4nFqc2at0iC-1">
          <mxGeometry relative="1" as="geometry" />
        </mxCell>
        <mxCell id="ydzcI7kzK4nFqc2at0iC-18" style="edgeStyle=orthogonalEdgeStyle;rounded=0;orthogonalLoop=1;jettySize=auto;html=1;entryX=1;entryY=0.25;entryDx=0;entryDy=0;" edge="1" parent="1" source="ydzcI7kzK4nFqc2at0iC-12" target="ydzcI7kzK4nFqc2at0iC-16">
          <mxGeometry relative="1" as="geometry" />
        </mxCell>
        <mxCell id="ydzcI7kzK4nFqc2at0iC-12" value="COR" style="ellipse;whiteSpace=wrap;html=1;align=center;" vertex="1" parent="1">
          <mxGeometry x="950" y="60" width="100" height="40" as="geometry" />
        </mxCell>
        <mxCell id="ydzcI7kzK4nFqc2at0iC-19" style="edgeStyle=orthogonalEdgeStyle;rounded=0;orthogonalLoop=1;jettySize=auto;html=1;entryX=1;entryY=0.75;entryDx=0;entryDy=0;" edge="1" parent="1" source="ydzcI7kzK4nFqc2at0iC-13" target="ydzcI7kzK4nFqc2at0iC-16">
          <mxGeometry relative="1" as="geometry" />
        </mxCell>
        <mxCell id="ydzcI7kzK4nFqc2at0iC-13" value="MODELO" style="ellipse;whiteSpace=wrap;html=1;align=center;" vertex="1" parent="1">
          <mxGeometry x="1020" y="120" width="100" height="40" as="geometry" />
        </mxCell>
        <mxCell id="ydzcI7kzK4nFqc2at0iC-20" style="edgeStyle=orthogonalEdgeStyle;rounded=0;orthogonalLoop=1;jettySize=auto;html=1;entryX=0.75;entryY=1;entryDx=0;entryDy=0;" edge="1" parent="1" source="ydzcI7kzK4nFqc2at0iC-14" target="ydzcI7kzK4nFqc2at0iC-16">
          <mxGeometry relative="1" as="geometry" />
        </mxCell>
        <mxCell id="ydzcI7kzK4nFqc2at0iC-14" value="ANO" style="ellipse;whiteSpace=wrap;html=1;align=center;" vertex="1" parent="1">
          <mxGeometry x="1020" y="200" width="100" height="40" as="geometry" />
        </mxCell>
        <mxCell id="ydzcI7kzK4nFqc2at0iC-15" value="VALOR_DIARIA" style="ellipse;whiteSpace=wrap;html=1;align=center;" vertex="1" parent="1">
          <mxGeometry x="910" y="260" width="100" height="40" as="geometry" />
        </mxCell>
        <mxCell id="ydzcI7kzK4nFqc2at0iC-16" value="VEICULO" style="whiteSpace=wrap;html=1;align=center;" vertex="1" parent="1">
          <mxGeometry x="800" y="150" width="100" height="40" as="geometry" />
        </mxCell>
        <mxCell id="ydzcI7kzK4nFqc2at0iC-17" style="edgeStyle=orthogonalEdgeStyle;rounded=0;orthogonalLoop=1;jettySize=auto;html=1;exitX=0.5;exitY=1;exitDx=0;exitDy=0;entryX=0.572;entryY=-0.04;entryDx=0;entryDy=0;entryPerimeter=0;" edge="1" parent="1" source="ydzcI7kzK4nFqc2at0iC-7" target="ydzcI7kzK4nFqc2at0iC-16">
          <mxGeometry relative="1" as="geometry" />
        </mxCell>
        <mxCell id="ydzcI7kzK4nFqc2at0iC-21" style="edgeStyle=orthogonalEdgeStyle;rounded=0;orthogonalLoop=1;jettySize=auto;html=1;entryX=0.356;entryY=0.98;entryDx=0;entryDy=0;entryPerimeter=0;" edge="1" parent="1" source="ydzcI7kzK4nFqc2at0iC-15" target="ydzcI7kzK4nFqc2at0iC-16">
          <mxGeometry relative="1" as="geometry" />
        </mxCell>
        <mxCell id="ydzcI7kzK4nFqc2at0iC-22" value="ATENDENTE" style="whiteSpace=wrap;html=1;align=center;" vertex="1" parent="1">
          <mxGeometry x="760" y="510" width="100" height="40" as="geometry" />
        </mxCell>
        <mxCell id="ydzcI7kzK4nFqc2at0iC-27" style="edgeStyle=orthogonalEdgeStyle;rounded=0;orthogonalLoop=1;jettySize=auto;html=1;" edge="1" parent="1" source="ydzcI7kzK4nFqc2at0iC-24" target="ydzcI7kzK4nFqc2at0iC-22">
          <mxGeometry relative="1" as="geometry" />
        </mxCell>
        <mxCell id="ydzcI7kzK4nFqc2at0iC-24" value="COD_ATEND" style="ellipse;whiteSpace=wrap;html=1;align=center;" vertex="1" parent="1">
          <mxGeometry x="870" y="394" width="100" height="40" as="geometry" />
        </mxCell>
        <mxCell id="ydzcI7kzK4nFqc2at0iC-28" style="edgeStyle=orthogonalEdgeStyle;rounded=0;orthogonalLoop=1;jettySize=auto;html=1;entryX=1;entryY=0.5;entryDx=0;entryDy=0;" edge="1" parent="1" source="ydzcI7kzK4nFqc2at0iC-25" target="ydzcI7kzK4nFqc2at0iC-22">
          <mxGeometry relative="1" as="geometry" />
        </mxCell>
        <mxCell id="ydzcI7kzK4nFqc2at0iC-25" value="NOME" style="ellipse;whiteSpace=wrap;html=1;align=center;" vertex="1" parent="1">
          <mxGeometry x="960" y="460" width="100" height="40" as="geometry" />
        </mxCell>
        <mxCell id="ydzcI7kzK4nFqc2at0iC-26" value="PORC_COM" style="ellipse;whiteSpace=wrap;html=1;align=center;" vertex="1" parent="1">
          <mxGeometry x="930" y="580" width="100" height="40" as="geometry" />
        </mxCell>
        <mxCell id="ydzcI7kzK4nFqc2at0iC-29" style="edgeStyle=orthogonalEdgeStyle;rounded=0;orthogonalLoop=1;jettySize=auto;html=1;entryX=0.668;entryY=0.92;entryDx=0;entryDy=0;entryPerimeter=0;" edge="1" parent="1" source="ydzcI7kzK4nFqc2at0iC-26" target="ydzcI7kzK4nFqc2at0iC-22">
          <mxGeometry relative="1" as="geometry" />
        </mxCell>
        <mxCell id="ydzcI7kzK4nFqc2at0iC-30" value="LOCAÇÃO" style="whiteSpace=wrap;html=1;align=center;" vertex="1" parent="1">
          <mxGeometry x="210" y="580" width="100" height="40" as="geometry" />
        </mxCell>
        <mxCell id="ydzcI7kzK4nFqc2at0iC-41" style="edgeStyle=orthogonalEdgeStyle;rounded=0;orthogonalLoop=1;jettySize=auto;html=1;entryX=0.5;entryY=0;entryDx=0;entryDy=0;" edge="1" parent="1" source="ydzcI7kzK4nFqc2at0iC-31" target="ydzcI7kzK4nFqc2at0iC-30">
          <mxGeometry relative="1" as="geometry" />
        </mxCell>
        <mxCell id="ydzcI7kzK4nFqc2at0iC-31" value="COD_LOCACAO" style="ellipse;whiteSpace=wrap;html=1;align=center;" vertex="1" parent="1">
          <mxGeometry x="210" y="460" width="100" height="40" as="geometry" />
        </mxCell>
        <mxCell id="ydzcI7kzK4nFqc2at0iC-42" style="edgeStyle=orthogonalEdgeStyle;rounded=0;orthogonalLoop=1;jettySize=auto;html=1;exitX=1;exitY=1;exitDx=0;exitDy=0;" edge="1" parent="1" source="ydzcI7kzK4nFqc2at0iC-32" target="ydzcI7kzK4nFqc2at0iC-30">
          <mxGeometry relative="1" as="geometry">
            <Array as="points">
              <mxPoint x="115" y="590" />
            </Array>
          </mxGeometry>
        </mxCell>
        <mxCell id="ydzcI7kzK4nFqc2at0iC-32" value="DATA_RET" style="ellipse;whiteSpace=wrap;html=1;align=center;" vertex="1" parent="1">
          <mxGeometry x="30" y="510" width="100" height="40" as="geometry" />
        </mxCell>
        <mxCell id="ydzcI7kzK4nFqc2at0iC-33" value="HORA_RET" style="ellipse;whiteSpace=wrap;html=1;align=center;" vertex="1" parent="1">
          <mxGeometry x="30" y="600" width="100" height="40" as="geometry" />
        </mxCell>
        <mxCell id="ydzcI7kzK4nFqc2at0iC-44" style="edgeStyle=orthogonalEdgeStyle;rounded=0;orthogonalLoop=1;jettySize=auto;html=1;entryX=0.25;entryY=1;entryDx=0;entryDy=0;" edge="1" parent="1" source="ydzcI7kzK4nFqc2at0iC-34" target="ydzcI7kzK4nFqc2at0iC-30">
          <mxGeometry relative="1" as="geometry" />
        </mxCell>
        <mxCell id="ydzcI7kzK4nFqc2at0iC-34" value="DATA_DEV" style="ellipse;whiteSpace=wrap;html=1;align=center;" vertex="1" parent="1">
          <mxGeometry x="30" y="670" width="100" height="40" as="geometry" />
        </mxCell>
        <mxCell id="ydzcI7kzK4nFqc2at0iC-35" value="HORA_DEV" style="ellipse;whiteSpace=wrap;html=1;align=center;" vertex="1" parent="1">
          <mxGeometry x="30" y="740" width="100" height="40" as="geometry" />
        </mxCell>
        <mxCell id="ydzcI7kzK4nFqc2at0iC-45" style="edgeStyle=orthogonalEdgeStyle;rounded=0;orthogonalLoop=1;jettySize=auto;html=1;entryX=0.75;entryY=1;entryDx=0;entryDy=0;" edge="1" parent="1" source="ydzcI7kzK4nFqc2at0iC-36" target="ydzcI7kzK4nFqc2at0iC-30">
          <mxGeometry relative="1" as="geometry" />
        </mxCell>
        <mxCell id="ydzcI7kzK4nFqc2at0iC-36" value="TOTAL" style="ellipse;whiteSpace=wrap;html=1;align=center;" vertex="1" parent="1">
          <mxGeometry x="160" y="780" width="100" height="40" as="geometry" />
        </mxCell>
        <mxCell id="ydzcI7kzK4nFqc2at0iC-49" style="edgeStyle=orthogonalEdgeStyle;rounded=0;orthogonalLoop=1;jettySize=auto;html=1;exitX=0;exitY=0;exitDx=0;exitDy=0;entryX=0.5;entryY=1;entryDx=0;entryDy=0;" edge="1" parent="1" source="ydzcI7kzK4nFqc2at0iC-37" target="ydzcI7kzK4nFqc2at0iC-30">
          <mxGeometry relative="1" as="geometry" />
        </mxCell>
        <mxCell id="ydzcI7kzK4nFqc2at0iC-37" value="ATENDENTE" style="ellipse;whiteSpace=wrap;html=1;align=center;" vertex="1" parent="1">
          <mxGeometry x="270" y="760" width="100" height="40" as="geometry" />
        </mxCell>
        <mxCell id="ydzcI7kzK4nFqc2at0iC-38" value="VEICULO" style="ellipse;whiteSpace=wrap;html=1;align=center;" vertex="1" parent="1">
          <mxGeometry x="330" y="710" width="100" height="40" as="geometry" />
        </mxCell>
        <mxCell id="ydzcI7kzK4nFqc2at0iC-47" style="edgeStyle=orthogonalEdgeStyle;rounded=0;orthogonalLoop=1;jettySize=auto;html=1;exitX=0;exitY=0;exitDx=0;exitDy=0;entryX=1;entryY=0.75;entryDx=0;entryDy=0;" edge="1" parent="1" source="ydzcI7kzK4nFqc2at0iC-39" target="ydzcI7kzK4nFqc2at0iC-30">
          <mxGeometry relative="1" as="geometry" />
        </mxCell>
        <mxCell id="ydzcI7kzK4nFqc2at0iC-39" value="VALOR_COM" style="ellipse;whiteSpace=wrap;html=1;align=center;" vertex="1" parent="1">
          <mxGeometry x="410" y="650" width="100" height="40" as="geometry" />
        </mxCell>
        <mxCell id="ydzcI7kzK4nFqc2at0iC-40" value="CLIENTE" style="ellipse;whiteSpace=wrap;html=1;align=center;" vertex="1" parent="1">
          <mxGeometry x="450" y="550" width="100" height="40" as="geometry" />
        </mxCell>
        <mxCell id="ydzcI7kzK4nFqc2at0iC-43" style="edgeStyle=orthogonalEdgeStyle;rounded=0;orthogonalLoop=1;jettySize=auto;html=1;entryX=0.176;entryY=0.91;entryDx=0;entryDy=0;entryPerimeter=0;" edge="1" parent="1" source="ydzcI7kzK4nFqc2at0iC-33" target="ydzcI7kzK4nFqc2at0iC-30">
          <mxGeometry relative="1" as="geometry" />
        </mxCell>
        <mxCell id="ydzcI7kzK4nFqc2at0iC-46" style="edgeStyle=orthogonalEdgeStyle;rounded=0;orthogonalLoop=1;jettySize=auto;html=1;exitX=0;exitY=0;exitDx=0;exitDy=0;entryX=0.936;entryY=0.99;entryDx=0;entryDy=0;entryPerimeter=0;" edge="1" parent="1" source="ydzcI7kzK4nFqc2at0iC-38" target="ydzcI7kzK4nFqc2at0iC-30">
          <mxGeometry relative="1" as="geometry" />
        </mxCell>
        <mxCell id="ydzcI7kzK4nFqc2at0iC-48" style="edgeStyle=orthogonalEdgeStyle;rounded=0;orthogonalLoop=1;jettySize=auto;html=1;exitX=0;exitY=0.5;exitDx=0;exitDy=0;entryX=0.848;entryY=0.05;entryDx=0;entryDy=0;entryPerimeter=0;" edge="1" parent="1" source="ydzcI7kzK4nFqc2at0iC-40" target="ydzcI7kzK4nFqc2at0iC-30">
          <mxGeometry relative="1" as="geometry" />
        </mxCell>
        <mxCell id="ydzcI7kzK4nFqc2at0iC-52" style="edgeStyle=orthogonalEdgeStyle;rounded=0;orthogonalLoop=1;jettySize=auto;html=1;entryX=1;entryY=0.5;entryDx=0;entryDy=0;" edge="1" parent="1" source="ydzcI7kzK4nFqc2at0iC-51" target="ydzcI7kzK4nFqc2at0iC-1">
          <mxGeometry relative="1" as="geometry" />
        </mxCell>
        <mxCell id="ydzcI7kzK4nFqc2at0iC-53" style="edgeStyle=orthogonalEdgeStyle;rounded=0;orthogonalLoop=1;jettySize=auto;html=1;entryX=0.75;entryY=0;entryDx=0;entryDy=0;" edge="1" parent="1" source="ydzcI7kzK4nFqc2at0iC-51" target="ydzcI7kzK4nFqc2at0iC-30">
          <mxGeometry relative="1" as="geometry" />
        </mxCell>
        <mxCell id="ydzcI7kzK4nFqc2at0iC-51" value="ALUGA" style="shape=rhombus;perimeter=rhombusPerimeter;whiteSpace=wrap;html=1;align=center;" vertex="1" parent="1">
          <mxGeometry x="360" y="330" width="120" height="60" as="geometry" />
        </mxCell>
        <mxCell id="ydzcI7kzK4nFqc2at0iC-55" style="edgeStyle=orthogonalEdgeStyle;rounded=0;orthogonalLoop=1;jettySize=auto;html=1;entryX=1;entryY=0.5;entryDx=0;entryDy=0;" edge="1" parent="1" source="ydzcI7kzK4nFqc2at0iC-54" target="ydzcI7kzK4nFqc2at0iC-30">
          <mxGeometry relative="1" as="geometry" />
        </mxCell>
        <mxCell id="ydzcI7kzK4nFqc2at0iC-56" style="edgeStyle=orthogonalEdgeStyle;rounded=0;orthogonalLoop=1;jettySize=auto;html=1;exitX=1;exitY=0.5;exitDx=0;exitDy=0;entryX=0;entryY=0.75;entryDx=0;entryDy=0;" edge="1" parent="1" source="ydzcI7kzK4nFqc2at0iC-54" target="ydzcI7kzK4nFqc2at0iC-16">
          <mxGeometry relative="1" as="geometry" />
        </mxCell>
        <mxCell id="ydzcI7kzK4nFqc2at0iC-54" value="PERTENCE" style="shape=rhombus;perimeter=rhombusPerimeter;whiteSpace=wrap;html=1;align=center;" vertex="1" parent="1">
          <mxGeometry x="560" y="384" width="120" height="60" as="geometry" />
        </mxCell>
        <mxCell id="ydzcI7kzK4nFqc2at0iC-58" style="edgeStyle=orthogonalEdgeStyle;rounded=0;orthogonalLoop=1;jettySize=auto;html=1;" edge="1" parent="1" source="ydzcI7kzK4nFqc2at0iC-57" target="ydzcI7kzK4nFqc2at0iC-22">
          <mxGeometry relative="1" as="geometry" />
        </mxCell>
        <mxCell id="ydzcI7kzK4nFqc2at0iC-59" style="edgeStyle=orthogonalEdgeStyle;rounded=0;orthogonalLoop=1;jettySize=auto;html=1;entryX=1;entryY=0.25;entryDx=0;entryDy=0;" edge="1" parent="1" source="ydzcI7kzK4nFqc2at0iC-57" target="ydzcI7kzK4nFqc2at0iC-30">
          <mxGeometry relative="1" as="geometry" />
        </mxCell>
        <mxCell id="ydzcI7kzK4nFqc2at0iC-57" value="REALIZA" style="shape=rhombus;perimeter=rhombusPerimeter;whiteSpace=wrap;html=1;align=center;" vertex="1" parent="1">
          <mxGeometry x="570" y="500" width="120" height="60" as="geometry" />
        </mxCell>
      </root>
    </mxGraphModel>
  </diagram>
</mxfile>
